# xmcd
#
# Track frame offsets: 
#        150
#        17207
#        36875
#        53800
#        69707
#        93915
#        111202
#        126705
#        142857
#        161960
#        177832
#        192697
#        209337
#        228637
#        246535
#        261760
#        276282
#        291092
#
# Disc length: 4183 seconds
#
# Revision: 3
# Processed by: cddbd v1.5.2PL0 Copyright (c) Steve Scherf et al.
# Submitted via: ExactAudioCopyFreeDBPlugin 1.0
#
DISCID=22105512
DTITLE=Charlie Landsborough - Smile {2005,EU,Rosette Records,ROSCD2053
DTITLE=}
DYEAR=2003
DGENRE=Country, Bluegrass, Folk
TTITLE0=Sentimentally Yours
TTITLE1=Gone, But I Can't Let You Go
TTITLE2=Smile
TTITLE3=Little Bit Of Heaven
TTITLE4=The Bluebell Man
TTITLE5=Peace Of Mind
TTITLE6=What Makes Me Happy
TTITLE7=After All These Years
TTITLE8=Child Of Candlelight
TTITLE9=Raining In My Heart
TTITLE10=Takin' My Time
TTITLE11=Marie
TTITLE12=Counterfeit Man
TTITLE13=Like You Once Loved Me
TTITLE14=Getting Out
TTITLE15=Silver Of My Tears
TTITLE16=What Happened To Love
TTITLE17=When You Were Sweet Sixteen
EXTD=
EXTT0=
EXTT1=
EXTT2=
EXTT3=
EXTT4=
EXTT5=
EXTT6=
EXTT7=
EXTT8=
EXTT9=
EXTT10=
EXTT11=
EXTT12=
EXTT13=
EXTT14=
EXTT15=
EXTT16=
EXTT17=
PLAYORDER=
